<svg xmlns="http://www.w3.org/2000/svg" xmlns:xlink="http://www.w3.org/1999/xlink" viewBox="0 0 40.65 30.14">
  <defs>
    <clipPath id="clip-path" transform="translate(0 0)">
      <rect width="40.65" height="30.14" style="fill: none"/>
    </clipPath>
  </defs>
  <title>Asset 1</title>
  <g id="Layer_2" data-name="Layer 2">
    <g id="Layer_1-2" data-name="Layer 1">
      <g style="clip-path: url(#clip-path)">
        <path d="M40.65,3.5Q38,4.83,35.79,6.2a33.08,33.08,0,0,0-3.87,2.7,16.36,16.36,0,0,0-3.11,3.45,18,18,0,0,0-2.11,4.72h2.39q3.5,0,5,1.73a5.65,5.65,0,0,1,1.53,3.84,7.76,7.76,0,0,1-2.06,5.08A7,7,0,0,1,28,30.14q-3.78,0-5.58-2.11a8.23,8.23,0,0,1-1.81-5.56,17.27,17.27,0,0,1,1.94-8.18,26.7,26.7,0,0,1,4.9-6.56,32.72,32.72,0,0,1,6-4.62C35.55,1.89,37.39.85,39,0Zm-20.57,0q-2.62,1.33-4.87,2.7a32.08,32.08,0,0,0-3.86,2.7,16.7,16.7,0,0,0-3.12,3.45,18.29,18.29,0,0,0-2.11,4.72H8.51c2.34,0,4,.58,5,1.73a5.65,5.65,0,0,1,1.53,3.84A7.71,7.71,0,0,1,13,27.72,7,7,0,0,1,7.4,30.14c-2.52,0-4.39-.7-5.59-2.11A8.23,8.23,0,0,1,0,22.47a17.16,17.16,0,0,1,2-8.18A26.66,26.66,0,0,1,6.84,7.73a32.45,32.45,0,0,1,6-4.62Q16,1.28,18.41,0Z" transform="translate(0 0)" style="fill: #231f20"/>
      </g>
    </g>
  </g>
</svg>
